{
  "accessors": [
    {
      "bufferView": 2,
      "componentType": 5126,
      "count": 1455,
      "max": [
        16.44379997253418,
        5.144400119781494,
        56.660099029541016
      ],
      "min": [
        -17.29990005493164,
        -4.213200092315674,
        -0.20479999482631683
      ],
      "type": "VEC3"
    },
    {
      "bufferView": 2,
      "byteOffset": 17460,
      "componentType": 5126,
      "count": 1455,
      "max": [
        0.9999793767929077,
        0.9999933242797852,
        0.9999898672103882
      ],
      "min": [
        -0.9999678134918213,
        -0.9999970197677612,
        -0.999993085861206
      ],
      "type": "VEC3"
    },
    {
      "bufferView": 1,
      "componentType": 5126,
      "count": 1455,
      "max": [
        0.955299973487854,
        0.9495999813079834
      ],
      "min": [
        0.023000000044703484,
        -0.4677000045776367
      ],
      "type": "VEC2"
    },
    {
      "bufferView": 0,
      "componentType": 5125,
      "count": 4419,
      "type": "SCALAR"
    },
    {
      "bufferView": 2,
      "byteOffset": 34920,
      "componentType": 5126,
      "count": 1905,
      "max": [
        16.44379997253418,
        5.4618000984191895,
        56.660099029541016
      ],
      "min": [
        -17.29990005493164,
        -5.316400051116943,
        -0.20479999482631683
      ],
      "type": "VEC3"
    },
    {
      "bufferView": 2,
      "byteOffset": 57780,
      "componentType": 5126,
      "count": 1905,
      "max": [
        0.9999841451644897,
        0.9999868869781494,
        0.9999996423721313
      ],
      "min": [
        -0.9999849796295166,
        -0.9999868869781494,
        -0.9999998807907104
      ],
      "type": "VEC3"
    },
    {
      "bufferView": 1,
      "byteOffset": 11640,
      "componentType": 5126,
      "count": 1905,
      "max": [
        0.9553999900817871,
        0.9258000254631042
      ],
      "min": [
        0.02539999969303608,
        -0.47029998898506165
      ],
      "type": "VEC2"
    },
    {
      "bufferView": 0,
      "byteOffset": 17676,
      "componentType": 5125,
      "count": 7653,
      "type": "SCALAR"
    }
  ],
  "asset": {
    "extras": {
      "author": "tomkranis (https://sketchfab.com/tomkranis)",
      "license": "CC-BY-4.0 (http://creativecommons.org/licenses/by/4.0/)",
      "source": "https://sketchfab.com/3d-models/stapler-36c8998a6cd64895a75a14232bb6f434",
      "title": "Stapler"
    },
    "generator": "Sketchfab-12.68.0",
    "version": "2.0"
  },
  "bufferViews": [
    {
      "buffer": 0,
      "byteLength": 48288,
      "name": "floatBufferViews",
      "target": 34963
    },
    {
      "buffer": 0,
      "byteLength": 26880,
      "byteOffset": 48288,
      "byteStride": 8,
      "name": "floatBufferViews",
      "target": 34962
    },
    {
      "buffer": 0,
      "byteLength": 80640,
      "byteOffset": 75168,
      "byteStride": 12,
      "name": "floatBufferViews",
      "target": 34962
    }
  ],
  "buffers": [
    {
      "byteLength": 155808,
      "uri": "scene.bin"
    }
  ],
  "images": [
    {
      "uri": "textures/stapler_baseColor.png"
    }
  ],
  "materials": [
    {
      "doubleSided": true,
      "emissiveTexture": {
        "index": 0
      },
      "name": "stapler",
      "pbrMetallicRoughness": {
        "baseColorTexture": {
          "index": 0
        },
        "metallicFactor": 0.0,
        "roughnessFactor": 0.6
      }
    }
  ],
  "meshes": [
    {
      "name": "Object_0",
      "primitives": [
        {
          "attributes": {
            "NORMAL": 1,
            "POSITION": 0,
            "TEXCOORD_0": 2
          },
          "indices": 3,
          "material": 0,
          "mode": 4
        }
      ]
    },
    {
      "name": "Object_1",
      "primitives": [
        {
          "attributes": {
            "NORMAL": 5,
            "POSITION": 4,
            "TEXCOORD_0": 6
          },
          "indices": 7,
          "material": 0,
          "mode": 4
        }
      ]
    }
  ],
  "nodes": [
    {
      "children": [
        1
      ],
      "matrix": [
        1.0,
        0.0,
        0.0,
        0.0,
        0.0,
        2.220446049250313e-16,
        -1.0,
        0.0,
        0.0,
        1.0,
        2.220446049250313e-16,
        0.0,
        0.0,
        0.0,
        0.0,
        1.0
      ],
      "name": "Sketchfab_model"
    },
    {
      "children": [
        2,
        3
      ],
      "name": "stapler.obj.cleaner"
    },
    {
      "mesh": 0,
      "name": "Object_2"
    },
    {
      "mesh": 1,
      "name": "Object_3"
    }
  ],
  "samplers": [
    {
      "magFilter": 9729,
      "minFilter": 9987,
      "wrapS": 10497,
      "wrapT": 10497
    }
  ],
  "scene": 0,
  "scenes": [
    {
      "name": "Sketchfab_Scene",
      "nodes": [
        0
      ]
    }
  ],
  "textures": [
    {
      "sampler": 0,
      "source": 0
    }
  ]
}
