{
  "accessors": [
    {
      "bufferView": 2,
      "componentType": 5126,
      "count": 1558,
      "max": [
        0.06742271780967712,
        0.11934685707092285,
        0.041859064251184464
      ],
      "min": [
        -0.06831847131252289,
        -0.11971978843212128,
        -0.04326796159148216
      ],
      "type": "VEC3"
    },
    {
      "bufferView": 2,
      "byteOffset": 18696,
      "componentType": 5126,
      "count": 1558,
      "max": [
        1.0,
        0.9805669784545898,
        1.0
      ],
      "min": [
        -1.0,
        -1.0,
        -1.0
      ],
      "type": "VEC3"
    },
    {
      "bufferView": 3,
      "componentType": 5126,
      "count": 1558,
      "max": [
        0.9215694665908813,
        1.0,
        1.0,
        1.0
      ],
      "min": [
        -0.9999608397483826,
        -1.0,
        -1.0,
        1.0
      ],
      "type": "VEC4"
    },
    {
      "bufferView": 1,
      "componentType": 5126,
      "count": 1558,
      "max": [
        0.9307295680046082,
        0.9905813336372375
      ],
      "min": [
        0.0009765625,
        0.0009765647118911147
      ],
      "type": "VEC2"
    },
    {
      "bufferView": 0,
      "componentType": 5125,
      "count": 4521,
      "type": "SCALAR"
    },
    {
      "bufferView": 2,
      "byteOffset": 37392,
      "componentType": 5126,
      "count": 40,
      "max": [
        0.02494419738650322,
        0.10713409632444382,
        0.004415959119796753
      ],
      "min": [
        -0.019010111689567566,
        -0.10713409632444382,
        -0.005258109420537949
      ],
      "type": "VEC3"
    },
    {
      "bufferView": 2,
      "byteOffset": 37872,
      "componentType": 5126,
      "count": 40,
      "max": [
        1.0,
        1.0,
        1.0
      ],
      "min": [
        -0.9152641892433167,
        -1.0,
        -0.9999963045120239
      ],
      "type": "VEC3"
    },
    {
      "bufferView": 3,
      "byteOffset": 24928,
      "componentType": 5126,
      "count": 40,
      "max": [
        1.0,
        4.567049472825602e-06,
        0.5873202085494995,
        1.0
      ],
      "min": [
        -0.002729469444602728,
        -7.828586603864096e-06,
        -1.0,
        1.0
      ],
      "type": "VEC4"
    },
    {
      "bufferView": 1,
      "byteOffset": 12464,
      "componentType": 5126,
      "count": 40,
      "max": [
        0.9990234375,
        0.9761281609535217
      ],
      "min": [
        0.0009765625,
        0.0009765625
      ],
      "type": "VEC2"
    },
    {
      "bufferView": 0,
      "byteOffset": 18084,
      "componentType": 5125,
      "count": 60,
      "type": "SCALAR"
    },
    {
      "bufferView": 2,
      "byteOffset": 38352,
      "componentType": 5126,
      "count": 659,
      "max": [
        0.013467550277709961,
        0.013489507138729095,
        0.0038961321115493774
      ],
      "min": [
        -0.013475008308887482,
        -0.013453040271997452,
        -0.0037039443850517273
      ],
      "type": "VEC3"
    },
    {
      "bufferView": 2,
      "byteOffset": 46260,
      "componentType": 5126,
      "count": 659,
      "max": [
        0.9981765151023865,
        0.9981765151023865,
        1.0
      ],
      "min": [
        -0.9981765151023865,
        -0.9981763958930969,
        -1.0
      ],
      "type": "VEC3"
    },
    {
      "bufferView": 3,
      "byteOffset": 25568,
      "componentType": 5126,
      "count": 659,
      "max": [
        0.999498188495636,
        0.9969680309295654,
        0.9999606609344482,
        1.0
      ],
      "min": [
        -0.999854326248169,
        -0.9857891201972961,
        -0.7591195106506348,
        1.0
      ],
      "type": "VEC4"
    },
    {
      "bufferView": 1,
      "byteOffset": 12784,
      "componentType": 5126,
      "count": 659,
      "max": [
        0.0793018564581871,
        0.9812735915184021
      ],
      "min": [
        0.0009793835924938321,
        0.8424597978591919
      ],
      "type": "VEC2"
    },
    {
      "bufferView": 0,
      "byteOffset": 18324,
      "componentType": 5125,
      "count": 3378,
      "type": "SCALAR"
    }
  ],
  "asset": {
    "extras": {
      "author": "Rylae Shylna (https://sketchfab.com/risteralline)",
      "license": "CC-BY-4.0 (http://creativecommons.org/licenses/by/4.0/)",
      "source": "https://sketchfab.com/3d-models/pencil-sharpener-f74e7d19319f45e38550b1def978606a",
      "title": "Pencil Sharpener"
    },
    "generator": "Sketchfab-16.33.0",
    "version": "2.0"
  },
  "bufferViews": [
    {
      "buffer": 0,
      "byteLength": 31836,
      "name": "floatBufferViews",
      "target": 34963
    },
    {
      "buffer": 0,
      "byteLength": 18056,
      "byteOffset": 31836,
      "byteStride": 8,
      "name": "floatBufferViews",
      "target": 34962
    },
    {
      "buffer": 0,
      "byteLength": 54168,
      "byteOffset": 49892,
      "byteStride": 12,
      "name": "floatBufferViews",
      "target": 34962
    },
    {
      "buffer": 0,
      "byteLength": 36112,
      "byteOffset": 104060,
      "byteStride": 16,
      "name": "floatBufferViews",
      "target": 34962
    }
  ],
  "buffers": [
    {
      "byteLength": 140172,
      "uri": "scene.bin"
    }
  ],
  "extensionsUsed": [
    "KHR_materials_specular"
  ],
  "images": [
    {
      "uri": "textures/Scene_-_Root_baseColor.png"
    },
    {
      "uri": "textures/Scene_-_Root_metallicRoughness.png"
    },
    {
      "uri": "textures/Scene_-_Root_normal.png"
    }
  ],
  "materials": [
    {
      "alphaMode": "BLEND",
      "doubleSided": true,
      "extensions": {
        "KHR_materials_specular": {
          "specularColorFactor": [
            1.0,
            1.0,
            1.0
          ],
          "specularFactor": 1.0
        }
      },
      "name": "Scene_-_Root",
      "normalTexture": {
        "index": 2
      },
      "pbrMetallicRoughness": {
        "baseColorTexture": {
          "index": 0
        },
        "metallicRoughnessTexture": {
          "index": 1
        }
      }
    }
  ],
  "meshes": [
    {
      "name": "Body__0",
      "primitives": [
        {
          "attributes": {
            "NORMAL": 1,
            "POSITION": 0,
            "TANGENT": 2,
            "TEXCOORD_0": 3
          },
          "indices": 4,
          "material": 0,
          "mode": 4
        }
      ]
    },
    {
      "name": "Blade__0",
      "primitives": [
        {
          "attributes": {
            "NORMAL": 6,
            "POSITION": 5,
            "TANGENT": 7,
            "TEXCOORD_0": 8
          },
          "indices": 9,
          "material": 0,
          "mode": 4
        }
      ]
    },
    {
      "name": "Bolt__0",
      "primitives": [
        {
          "attributes": {
            "NORMAL": 11,
            "POSITION": 10,
            "TANGENT": 12,
            "TEXCOORD_0": 13
          },
          "indices": 14,
          "material": 0,
          "mode": 4
        }
      ]
    }
  ],
  "nodes": [
    {
      "children": [
        1
      ],
      "matrix": [
        0.42419740557670593,
        0.0,
        0.0,
        0.0,
        0.0,
        9.419074533150294e-17,
        -0.42419740557670593,
        0.0,
        0.0,
        0.42419740557670593,
        9.419074533150294e-17,
        0.0,
        0.0,
        0.0,
        0.0,
        1.0
      ],
      "name": "Sketchfab_model"
    },
    {
      "children": [
        2
      ],
      "matrix": [
        0.009999999776482582,
        0.0,
        0.0,
        0.0,
        0.0,
        0.0,
        0.009999999776482582,
        0.0,
        0.0,
        -0.009999999776482582,
        0.0,
        0.0,
        0.0,
        0.0,
        0.0,
        1.0
      ],
      "name": "PencilSharpener.fbx"
    },
    {
      "children": [
        3,
        5,
        7
      ],
      "name": "RootNode"
    },
    {
      "children": [
        4
      ],
      "matrix": [
        100.0,
        0.0,
        0.0,
        0.0,
        0.0,
        -1.629206793918314e-05,
        -99.99999999999868,
        0.0,
        0.0,
        99.99999999999868,
        -1.629206793918314e-05,
        0.0,
        0.04478750005364418,
        4.3932905197143555,
        -5.451949119567871,
        1.0
      ],
      "name": "Body"
    },
    {
      "mesh": 0,
      "name": "Body__0"
    },
    {
      "children": [
        6
      ],
      "matrix": [
        100.0,
        0.0,
        0.0,
        0.0,
        0.0,
        -1.629206793918314e-05,
        -99.99999999999868,
        0.0,
        0.0,
        99.99999999999868,
        -1.629206793918314e-05,
        0.0,
        2.0867817401885986,
        8.06409740447998,
        -5.4316887855529785,
        1.0
      ],
      "name": "Blade"
    },
    {
      "mesh": 1,
      "name": "Blade__0"
    },
    {
      "children": [
        8
      ],
      "matrix": [
        100.0,
        0.0,
        0.0,
        0.0,
        0.0,
        -1.629206793918314e-05,
        -99.99999999999868,
        0.0,
        0.0,
        99.99999999999868,
        -1.629206793918314e-05,
        0.0,
        3.005169630050659,
        8.782398223876953,
        -5.451899528503418,
        1.0
      ],
      "name": "Bolt"
    },
    {
      "mesh": 2,
      "name": "Bolt__0"
    }
  ],
  "samplers": [
    {
      "magFilter": 9729,
      "minFilter": 9987,
      "wrapS": 10497,
      "wrapT": 10497
    }
  ],
  "scene": 0,
  "scenes": [
    {
      "name": "Sketchfab_Scene",
      "nodes": [
        0
      ]
    }
  ],
  "textures": [
    {
      "sampler": 0,
      "source": 0
    },
    {
      "sampler": 0,
      "source": 1
    },
    {
      "sampler": 0,
      "source": 2
    }
  ]
}
