{
  "accessors": [
    {
      "bufferView": 2,
      "componentType": 5126,
      "count": 8549,
      "max": [
        5.08258581161499,
        9.191558837890625,
        8.119057655334473
      ],
      "min": [
        -3.5737900733947754,
        -11.099093437194824,
        0.4917199909687042
      ],
      "type": "VEC3"
    },
    {
      "bufferView": 2,
      "byteOffset": 102588,
      "componentType": 5126,
      "count": 8549,
      "max": [
        0.9999008774757385,
        0.9999845623970032,
        0.9999200701713562
      ],
      "min": [
        -0.9999775290489197,
        -0.9997784495353699,
        -0.9999640583992004
      ],
      "type": "VEC3"
    },
    {
      "bufferView": 1,
      "componentType": 5126,
      "count": 8549,
      "max": [
        0.9994350671768188,
        0.9500731229782104
      ],
      "min": [
        0.0001220703125,
        0.0003696872154250741
      ],
      "type": "VEC2"
    },
    {
      "bufferView": 1,
      "byteOffset": 68392,
      "componentType": 5126,
      "count": 8549,
      "max": [
        0.9994350671768188,
        0.9500731229782104
      ],
      "min": [
        0.0001220703125,
        0.0003696872154250741
      ],
      "type": "VEC2"
    },
    {
      "bufferView": 0,
      "componentType": 5125,
      "count": 38703,
      "type": "SCALAR"
    }
  ],
  "asset": {
    "extras": {
      "author": "Ville Mäkilä (https://sketchfab.com/villemakila)",
      "license": "CC-BY-4.0 (http://creativecommons.org/licenses/by/4.0/)",
      "source": "https://sketchfab.com/3d-models/90s-nhl-pencil-case-07e5a1bc68f2433eb8fb3db3582ec3d9",
      "title": "90's NHL -Pencil case"
    },
    "generator": "Sketchfab-12.67.0",
    "version": "2.0"
  },
  "bufferViews": [
    {
      "buffer": 0,
      "byteLength": 154812,
      "name": "floatBufferViews",
      "target": 34963
    },
    {
      "buffer": 0,
      "byteLength": 136784,
      "byteOffset": 154812,
      "byteStride": 8,
      "name": "floatBufferViews",
      "target": 34962
    },
    {
      "buffer": 0,
      "byteLength": 205176,
      "byteOffset": 291596,
      "byteStride": 12,
      "name": "floatBufferViews",
      "target": 34962
    }
  ],
  "buffers": [
    {
      "byteLength": 496772,
      "uri": "scene.bin"
    }
  ],
  "extensionsRequired": [
    "KHR_materials_pbrSpecularGlossiness"
  ],
  "extensionsUsed": [
    "KHR_materials_pbrSpecularGlossiness"
  ],
  "images": [
    {
      "uri": "textures/penaali_lopoly_u1_v1_diffuse.jpeg"
    }
  ],
  "materials": [
    {
      "doubleSided": true,
      "extensions": {
        "KHR_materials_pbrSpecularGlossiness": {
          "diffuseFactor": [
            1.0,
            1.0,
            1.0,
            1.0
          ],
          "diffuseTexture": {
            "index": 0
          },
          "glossinessFactor": 0.8977286316530172,
          "specularFactor": [
            0.0,
            0.0,
            0.0
          ]
        }
      },
      "name": "penaali_lopoly_u1_v1"
    }
  ],
  "meshes": [
    {
      "name": "penaali_lopoly_penaali_lopoly_u1_v1_0",
      "primitives": [
        {
          "attributes": {
            "NORMAL": 1,
            "POSITION": 0,
            "TEXCOORD_0": 2,
            "TEXCOORD_1": 3
          },
          "indices": 4,
          "material": 0,
          "mode": 4
        }
      ]
    }
  ],
  "nodes": [
    {
      "children": [
        1
      ],
      "matrix": [
        0.9011234641075134,
        -0.43356263637542725,
        -9.627024430423674e-17,
        0.0,
        -1.2281829504421585e-16,
        -4.773120919726424e-16,
        1.0,
        0.0,
        -0.43356263637542725,
        -0.9011234641075134,
        -4.833665378958283e-16,
        0.0,
        -1.7920656204223633,
        -7.858006477355957,
        -1.9075374603271502,
        1.0
      ],
      "name": "Sketchfab_model"
    },
    {
      "children": [
        2
      ],
      "matrix": [
        1.0,
        0.0,
        0.0,
        0.0,
        0.0,
        -1.0,
        0.0,
        0.0,
        0.0,
        0.0,
        -1.0,
        0.0,
        0.0,
        0.0,
        0.0,
        1.0
      ],
      "name": "penaali_lopoly.fbx"
    },
    {
      "children": [
        3
      ],
      "name": "RootNode"
    },
    {
      "children": [
        4
      ],
      "name": "penaali_lopoly"
    },
    {
      "mesh": 0,
      "name": "penaali_lopoly_penaali_lopoly_u1_v1_0"
    }
  ],
  "samplers": [
    {
      "magFilter": 9729,
      "minFilter": 9987,
      "wrapS": 10497,
      "wrapT": 10497
    }
  ],
  "scene": 0,
  "scenes": [
    {
      "name": "Sketchfab_Scene",
      "nodes": [
        0
      ]
    }
  ],
  "textures": [
    {
      "sampler": 0,
      "source": 0
    }
  ]
}
