{
  "accessors": [
    {
      "bufferView": 2,
      "componentType": 5126,
      "count": 149,
      "max": [
        1.418653964996338,
        23.00343132019043,
        1.9082590341567993
      ],
      "min": [
        0.30468401312828064,
        3.4622440338134766,
        0.7942879796028137
      ],
      "type": "VEC3"
    },
    {
      "bufferView": 2,
      "byteOffset": 1788,
      "componentType": 5126,
      "count": 149,
      "max": [
        1.0,
        1.0,
        1.0
      ],
      "min": [
        -1.0,
        -1.0,
        -1.0
      ],
      "type": "VEC3"
    },
    {
      "bufferView": 1,
      "componentType": 5126,
      "count": 149,
      "max": [
        1.0003119707107544,
        0.9396179914474487
      ],
      "min": [
        0.12605459988117218,
        0.042739998549222946
      ],
      "type": "VEC2"
    },
    {
      "bufferView": 1,
      "byteOffset": 1192,
      "componentType": 5126,
      "count": 149,
      "max": [
        1.0003119707107544,
        0.9396179914474487
      ],
      "min": [
        0.12605459988117218,
        0.042739998549222946
      ],
      "type": "VEC2"
    },
    {
      "bufferView": 0,
      "componentType": 5125,
      "count": 282,
      "type": "SCALAR"
    }
  ],
  "asset": {
    "extras": {
      "author": "jablazinb (https://sketchfab.com/jablazinb)",
      "license": "CC-BY-4.0 (http://creativecommons.org/licenses/by/4.0/)",
      "source": "https://sketchfab.com/3d-models/pencil-8b0f41f8b2dc475ca0083f381abc54bd",
      "title": "Pencil"
    },
    "generator": "Sketchfab-12.68.0",
    "version": "2.0"
  },
  "bufferViews": [
    {
      "buffer": 0,
      "byteLength": 1128,
      "name": "floatBufferViews",
      "target": 34963
    },
    {
      "buffer": 0,
      "byteLength": 2384,
      "byteOffset": 1128,
      "byteStride": 8,
      "name": "floatBufferViews",
      "target": 34962
    },
    {
      "buffer": 0,
      "byteLength": 3576,
      "byteOffset": 3512,
      "byteStride": 12,
      "name": "floatBufferViews",
      "target": 34962
    }
  ],
  "buffers": [
    {
      "byteLength": 7088,
      "uri": "scene.bin"
    }
  ],
  "images": [
    {
      "uri": "textures/blinn1_baseColor.png"
    }
  ],
  "materials": [
    {
      "doubleSided": true,
      "name": "blinn1",
      "pbrMetallicRoughness": {
        "baseColorTexture": {
          "index": 0
        },
        "metallicFactor": 0.0,
        "roughnessFactor": 0.6
      }
    }
  ],
  "meshes": [
    {
      "name": "Pencil:headusOBJexport_blinn1_0",
      "primitives": [
        {
          "attributes": {
            "NORMAL": 1,
            "POSITION": 0,
            "TEXCOORD_0": 2,
            "TEXCOORD_1": 3
          },
          "indices": 4,
          "material": 0,
          "mode": 4
        }
      ]
    }
  ],
  "nodes": [
    {
      "children": [
        1
      ],
      "matrix": [
        1.0,
        0.0,
        0.0,
        0.0,
        0.0,
        2.220446049250313e-16,
        -1.0,
        0.0,
        0.0,
        1.0,
        2.220446049250313e-16,
        0.0,
        0.0,
        0.0,
        0.0,
        1.0
      ],
      "name": "Sketchfab_model"
    },
    {
      "children": [
        2
      ],
      "matrix": [
        1.0,
        0.0,
        0.0,
        0.0,
        0.0,
        0.0,
        1.0,
        0.0,
        0.0,
        -1.0,
        0.0,
        0.0,
        0.0,
        0.0,
        0.0,
        1.0
      ],
      "name": "1ebd272a59624018990d703457367c75.fbx"
    },
    {
      "children": [
        3
      ],
      "name": "RootNode"
    },
    {
      "children": [
        4
      ],
      "name": "Pencil:headusOBJexport"
    },
    {
      "mesh": 0,
      "name": "Pencil:headusOBJexport_blinn1_0"
    }
  ],
  "samplers": [
    {
      "magFilter": 9729,
      "minFilter": 9987,
      "wrapS": 10497,
      "wrapT": 10497
    }
  ],
  "scene": 0,
  "scenes": [
    {
      "name": "Sketchfab_Scene",
      "nodes": [
        0
      ]
    }
  ],
  "textures": [
    {
      "sampler": 0,
      "source": 0
    }
  ]
}
