{
  "accessors": [
    {
      "bufferView": 2,
      "componentType": 5126,
      "count": 992,
      "max": [
        15.480969429016113,
        20.480968475341797,
        6.125490188598633
      ],
      "min": [
        -15.480969429016113,
        -0.48096799850463867,
        -6.054874897003174
      ],
      "type": "VEC3"
    },
    {
      "bufferView": 2,
      "byteOffset": 11904,
      "componentType": 5126,
      "count": 992,
      "max": [
        1.0,
        1.0,
        1.0
      ],
      "min": [
        -1.0,
        -1.0,
        -1.0
      ],
      "type": "VEC3"
    },
    {
      "bufferView": 3,
      "componentType": 5126,
      "count": 992,
      "max": [
        1.0,
        0.9999681711196899,
        0.9999966621398926,
        1.0
      ],
      "min": [
        -0.9999971389770508,
        -0.9999682307243347,
        -0.9999939799308777,
        -1.0
      ],
      "type": "VEC4"
    },
    {
      "bufferView": 1,
      "componentType": 5126,
      "count": 992,
      "max": [
        0.9872789978981018,
        0.7037580013275146
      ],
      "min": [
        0.01396199967712164,
        0.02253199927508831
      ],
      "type": "VEC2"
    },
    {
      "bufferView": 0,
      "componentType": 5125,
      "count": 4656,
      "type": "SCALAR"
    },
    {
      "bufferView": 2,
      "byteOffset": 23808,
      "componentType": 5126,
      "count": 2700,
      "max": [
        8.5600004196167,
        0.18341800570487976,
        5.764712810516357
      ],
      "min": [
        -8.341599464416504,
        -0.6536989808082581,
        4.329575061798096
      ],
      "type": "VEC3"
    },
    {
      "bufferView": 2,
      "byteOffset": 56208,
      "componentType": 5126,
      "count": 2700,
      "max": [
        0.9885751008987427,
        0.9999987483024597,
        0.9995657801628113
      ],
      "min": [
        -0.9885745048522949,
        -0.999996542930603,
        -0.9995662569999695
      ],
      "type": "VEC3"
    },
    {
      "bufferView": 3,
      "byteOffset": 15872,
      "componentType": 5126,
      "count": 2700,
      "max": [
        0.999914288520813,
        0.996678352355957,
        0.9086456894874573,
        1.0
      ],
      "min": [
        -0.9999135136604309,
        -0.9966756701469421,
        -0.9086357355117798,
        1.0
      ],
      "type": "VEC4"
    },
    {
      "bufferView": 1,
      "byteOffset": 7936,
      "componentType": 5126,
      "count": 2700,
      "max": [
        0.5762019753456116,
        0.7243450284004211
      ],
      "min": [
        0.4220629930496216,
        0.16319100558757782
      ],
      "type": "VEC2"
    },
    {
      "bufferView": 0,
      "byteOffset": 18624,
      "componentType": 5125,
      "count": 13920,
      "type": "SCALAR"
    },
    {
      "bufferView": 2,
      "byteOffset": 88608,
      "componentType": 5126,
      "count": 1570,
      "max": [
        10.0,
        21.696853637695313,
        1.5
      ],
      "min": [
        -10.0,
        20.0,
        -1.5
      ],
      "type": "VEC3"
    },
    {
      "bufferView": 2,
      "byteOffset": 107448,
      "componentType": 5126,
      "count": 1570,
      "max": [
        1.0,
        1.0,
        1.0
      ],
      "min": [
        -1.0,
        -0.9921403527259827,
        -1.0
      ],
      "type": "VEC3"
    },
    {
      "bufferView": 3,
      "byteOffset": 59072,
      "componentType": 5126,
      "count": 1570,
      "max": [
        0.9999937415122986,
        0.9999989867210388,
        1.0,
        1.0
      ],
      "min": [
        -0.9999942779541016,
        -0.9999959468841553,
        -1.0,
        1.0
      ],
      "type": "VEC4"
    },
    {
      "bufferView": 1,
      "byteOffset": 29536,
      "componentType": 5126,
      "count": 1570,
      "max": [
        0.9913570284843445,
        0.9650949835777283
      ],
      "min": [
        0.6242769956588745,
        0.5977489948272705
      ],
      "type": "VEC2"
    },
    {
      "bufferView": 0,
      "byteOffset": 74304,
      "componentType": 5125,
      "count": 7680,
      "type": "SCALAR"
    },
    {
      "bufferView": 2,
      "byteOffset": 126288,
      "componentType": 5126,
      "count": 977,
      "max": [
        4.329224109649658,
        23.16383171081543,
        0.9724519848823547
      ],
      "min": [
        -4.296220779418945,
        21.360034942626953,
        -1.0724519491195679
      ],
      "type": "VEC3"
    },
    {
      "bufferView": 2,
      "byteOffset": 138012,
      "componentType": 5126,
      "count": 977,
      "max": [
        0.9712178707122803,
        0.9999997615814209,
        0.9979051351547241
      ],
      "min": [
        -0.9644218683242798,
        -0.9999998807907104,
        -0.99784255027771
      ],
      "type": "VEC3"
    },
    {
      "bufferView": 3,
      "byteOffset": 84192,
      "componentType": 5126,
      "count": 977,
      "max": [
        0.9999978542327881,
        0.9613876342773438,
        0.9333353638648987,
        1.0
      ],
      "min": [
        -0.9999995231628418,
        -0.9713571071624756,
        -0.9682344198226929,
        -1.0
      ],
      "type": "VEC4"
    },
    {
      "bufferView": 1,
      "byteOffset": 42096,
      "componentType": 5126,
      "count": 977,
      "max": [
        0.9651049971580505,
        0.5772960186004639
      ],
      "min": [
        0.6184419989585876,
        0.21629099547863007
      ],
      "type": "VEC2"
    },
    {
      "bufferView": 0,
      "byteOffset": 105024,
      "componentType": 5125,
      "count": 5100,
      "type": "SCALAR"
    },
    {
      "bufferView": 2,
      "byteOffset": 149736,
      "componentType": 5126,
      "count": 132,
      "max": [
        0.9301789999008179,
        21.004074096679688,
        5.93548583984375
      ],
      "min": [
        -0.9301789999008179,
        20.386661529541016,
        3.4084930419921875
      ],
      "type": "VEC3"
    },
    {
      "bufferView": 2,
      "byteOffset": 151320,
      "componentType": 5126,
      "count": 132,
      "max": [
        0.9948610067367554,
        0.99753338098526,
        0.989819347858429
      ],
      "min": [
        -0.9948610067367554,
        -0.14233005046844482,
        -0.989819347858429
      ],
      "type": "VEC3"
    },
    {
      "bufferView": 3,
      "byteOffset": 99824,
      "componentType": 5126,
      "count": 132,
      "max": [
        1.0,
        0.9948610663414001,
        0.6269563436508179,
        1.0
      ],
      "min": [
        -0.9999902248382568,
        -0.9948610663414001,
        -0.6277386546134949,
        1.0
      ],
      "type": "VEC4"
    },
    {
      "bufferView": 1,
      "byteOffset": 49912,
      "componentType": 5126,
      "count": 132,
      "max": [
        0.36811399459838867,
        0.9353929758071899
      ],
      "min": [
        0.19949400424957275,
        0.752830982208252
      ],
      "type": "VEC2"
    },
    {
      "bufferView": 0,
      "byteOffset": 125424,
      "componentType": 5125,
      "count": 396,
      "type": "SCALAR"
    },
    {
      "bufferView": 2,
      "byteOffset": 152904,
      "componentType": 5126,
      "count": 769,
      "max": [
        1.3091490268707275,
        20.876907348632813,
        6.35679817199707
      ],
      "min": [
        -1.3106110095977783,
        20.286283493041992,
        2.8433749675750732
      ],
      "type": "VEC3"
    },
    {
      "bufferView": 2,
      "byteOffset": 162132,
      "componentType": 5126,
      "count": 769,
      "max": [
        0.9998477697372437,
        0.9999887347221375,
        0.9998313784599304
      ],
      "min": [
        -0.9998477697372437,
        -0.9999896287918091,
        -0.99983149766922
      ],
      "type": "VEC3"
    },
    {
      "bufferView": 3,
      "byteOffset": 101936,
      "componentType": 5126,
      "count": 769,
      "max": [
        0.9999322891235352,
        0.8055647015571594,
        0.9978246688842773,
        1.0
      ],
      "min": [
        -0.9999033808708191,
        -0.8040953874588013,
        -0.9981943964958191,
        1.0
      ],
      "type": "VEC4"
    },
    {
      "bufferView": 1,
      "byteOffset": 50968,
      "componentType": 5126,
      "count": 769,
      "max": [
        0.6760510206222534,
        0.9615839719772339
      ],
      "min": [
        0.18093399703502655,
        0.7369840145111084
      ],
      "type": "VEC2"
    },
    {
      "bufferView": 0,
      "byteOffset": 127008,
      "componentType": 5125,
      "count": 3024,
      "type": "SCALAR"
    },
    {
      "bufferView": 2,
      "byteOffset": 171360,
      "componentType": 5126,
      "count": 30,
      "max": [
        1.600000023841858,
        20.373153686523438,
        5.841729164123535
      ],
      "min": [
        -1.600000023841858,
        19.993154525756836,
        1.5712929964065552
      ],
      "type": "VEC3"
    },
    {
      "bufferView": 2,
      "byteOffset": 171720,
      "componentType": 5126,
      "count": 30,
      "max": [
        1.0,
        0.9998127818107605,
        1.0
      ],
      "min": [
        -1.0,
        0.0,
        -0.6078880429267883
      ],
      "type": "VEC3"
    },
    {
      "bufferView": 3,
      "byteOffset": 114240,
      "componentType": 5126,
      "count": 30,
      "max": [
        0.0,
        1.0,
        0.8002549409866333,
        1.0
      ],
      "min": [
        -1.0,
        -1.0,
        -0.8002549409866333,
        1.0
      ],
      "type": "VEC4"
    },
    {
      "bufferView": 1,
      "byteOffset": 57120,
      "componentType": 5126,
      "count": 30,
      "max": [
        0.17433199286460876,
        0.9192169904708862
      ],
      "min": [
        0.04417400062084198,
        0.75
      ],
      "type": "VEC2"
    },
    {
      "bufferView": 0,
      "byteOffset": 139104,
      "componentType": 5125,
      "count": 78,
      "type": "SCALAR"
    }
  ],
  "asset": {
    "extras": {
      "author": "Samantha Guillen (https://sketchfab.com/sguillen)",
      "license": "CC-BY-4.0 (http://creativecommons.org/licenses/by/4.0/)",
      "source": "https://sketchfab.com/3d-models/agent-p-old-metal-lunch-box-s-49748db69a534acebea4e0601fd769d3",
      "title": "Agent P Old Metal Lunch Box S"
    },
    "generator": "Sketchfab-15.87.0",
    "version": "2.0"
  },
  "bufferViews": [
    {
      "buffer": 0,
      "byteLength": 139416,
      "name": "floatBufferViews",
      "target": 34963
    },
    {
      "buffer": 0,
      "byteLength": 57360,
      "byteOffset": 139416,
      "byteStride": 8,
      "name": "floatBufferViews",
      "target": 34962
    },
    {
      "buffer": 0,
      "byteLength": 172080,
      "byteOffset": 196776,
      "byteStride": 12,
      "name": "floatBufferViews",
      "target": 34962
    },
    {
      "buffer": 0,
      "byteLength": 114720,
      "byteOffset": 368856,
      "byteStride": 16,
      "name": "floatBufferViews",
      "target": 34962
    }
  ],
  "buffers": [
    {
      "byteLength": 483576,
      "uri": "scene.bin"
    }
  ],
  "images": [
    {
      "uri": "textures/Color_Material_baseColor.png"
    },
    {
      "uri": "textures/Color_Material_metallicRoughness.png"
    },
    {
      "uri": "textures/Color_Material_emissive.jpeg"
    },
    {
      "uri": "textures/Color_Material_normal.png"
    },
    {
      "uri": "textures/HELIX_baseColor.png"
    },
    {
      "uri": "textures/HELIX_metallicRoughness.png"
    },
    {
      "uri": "textures/HELIX_emissive.jpeg"
    },
    {
      "uri": "textures/HELIX_normal.png"
    },
    {
      "uri": "textures/CHAIN_baseColor.png"
    },
    {
      "uri": "textures/CHAIN_metallicRoughness.png"
    },
    {
      "uri": "textures/CHAIN_emissive.jpeg"
    },
    {
      "uri": "textures/CHAIN_normal.png"
    },
    {
      "uri": "textures/BAND_baseColor.png"
    },
    {
      "uri": "textures/BAND_metallicRoughness.png"
    },
    {
      "uri": "textures/BAND_emissive.jpeg"
    },
    {
      "uri": "textures/BAND_normal.png"
    },
    {
      "uri": "textures/LATCH_baseColor.png"
    },
    {
      "uri": "textures/LATCH_metallicRoughness.png"
    },
    {
      "uri": "textures/LATCH_emissive.jpeg"
    },
    {
      "uri": "textures/LATCH_normal.png"
    },
    {
      "uri": "textures/LOOP_baseColor.png"
    },
    {
      "uri": "textures/LOOP_metallicRoughness.png"
    },
    {
      "uri": "textures/LOOP_emissive.jpeg"
    },
    {
      "uri": "textures/LOOP_normal.png"
    },
    {
      "uri": "textures/BASELATCH_baseColor.png"
    },
    {
      "uri": "textures/BASELATCH_metallicRoughness.png"
    },
    {
      "uri": "textures/BASELATCH_emissive.jpeg"
    },
    {
      "uri": "textures/BASELATCH_normal.png"
    }
  ],
  "materials": [
    {
      "alphaMode": "BLEND",
      "doubleSided": true,
      "emissiveFactor": [
        1.0,
        1.0,
        1.0
      ],
      "emissiveTexture": {
        "index": 2
      },
      "name": "Color_Material",
      "normalTexture": {
        "index": 3
      },
      "occlusionTexture": {
        "index": 1
      },
      "pbrMetallicRoughness": {
        "baseColorTexture": {
          "index": 0
        },
        "metallicRoughnessTexture": {
          "index": 1
        }
      }
    },
    {
      "alphaMode": "BLEND",
      "doubleSided": true,
      "emissiveFactor": [
        1.0,
        1.0,
        1.0
      ],
      "emissiveTexture": {
        "index": 6
      },
      "name": "HELIX",
      "normalTexture": {
        "index": 7
      },
      "occlusionTexture": {
        "index": 5
      },
      "pbrMetallicRoughness": {
        "baseColorTexture": {
          "index": 4
        },
        "metallicRoughnessTexture": {
          "index": 5
        }
      }
    },
    {
      "alphaMode": "BLEND",
      "doubleSided": true,
      "emissiveFactor": [
        1.0,
        1.0,
        1.0
      ],
      "emissiveTexture": {
        "index": 10
      },
      "name": "CHAIN",
      "normalTexture": {
        "index": 11
      },
      "occlusionTexture": {
        "index": 9
      },
      "pbrMetallicRoughness": {
        "baseColorTexture": {
          "index": 8
        },
        "metallicRoughnessTexture": {
          "index": 9
        }
      }
    },
    {
      "alphaMode": "BLEND",
      "doubleSided": true,
      "emissiveFactor": [
        1.0,
        1.0,
        1.0
      ],
      "emissiveTexture": {
        "index": 14
      },
      "name": "BAND",
      "normalTexture": {
        "index": 15
      },
      "occlusionTexture": {
        "index": 13
      },
      "pbrMetallicRoughness": {
        "baseColorTexture": {
          "index": 12
        },
        "metallicRoughnessTexture": {
          "index": 13
        }
      }
    },
    {
      "alphaMode": "BLEND",
      "doubleSided": true,
      "emissiveFactor": [
        1.0,
        1.0,
        1.0
      ],
      "emissiveTexture": {
        "index": 18
      },
      "name": "LATCH",
      "normalTexture": {
        "index": 19
      },
      "occlusionTexture": {
        "index": 17
      },
      "pbrMetallicRoughness": {
        "baseColorTexture": {
          "index": 16
        },
        "metallicRoughnessTexture": {
          "index": 17
        }
      }
    },
    {
      "alphaMode": "BLEND",
      "doubleSided": true,
      "emissiveFactor": [
        1.0,
        1.0,
        1.0
      ],
      "emissiveTexture": {
        "index": 22
      },
      "name": "LOOP",
      "normalTexture": {
        "index": 23
      },
      "occlusionTexture": {
        "index": 21
      },
      "pbrMetallicRoughness": {
        "baseColorTexture": {
          "index": 20
        },
        "metallicRoughnessTexture": {
          "index": 21
        }
      }
    },
    {
      "alphaMode": "BLEND",
      "doubleSided": true,
      "emissiveFactor": [
        1.0,
        1.0,
        1.0
      ],
      "emissiveTexture": {
        "index": 26
      },
      "name": "BASELATCH",
      "normalTexture": {
        "index": 27
      },
      "occlusionTexture": {
        "index": 25
      },
      "pbrMetallicRoughness": {
        "baseColorTexture": {
          "index": 24
        },
        "metallicRoughnessTexture": {
          "index": 25
        }
      }
    }
  ],
  "meshes": [
    {
      "name": "defaultMaterial",
      "primitives": [
        {
          "attributes": {
            "NORMAL": 1,
            "POSITION": 0,
            "TANGENT": 2,
            "TEXCOORD_0": 3
          },
          "indices": 4,
          "material": 0,
          "mode": 4
        }
      ]
    },
    {
      "name": "defaultMaterial",
      "primitives": [
        {
          "attributes": {
            "NORMAL": 6,
            "POSITION": 5,
            "TANGENT": 7,
            "TEXCOORD_0": 8
          },
          "indices": 9,
          "material": 1,
          "mode": 4
        }
      ]
    },
    {
      "name": "defaultMaterial",
      "primitives": [
        {
          "attributes": {
            "NORMAL": 11,
            "POSITION": 10,
            "TANGENT": 12,
            "TEXCOORD_0": 13
          },
          "indices": 14,
          "material": 2,
          "mode": 4
        }
      ]
    },
    {
      "name": "defaultMaterial",
      "primitives": [
        {
          "attributes": {
            "NORMAL": 16,
            "POSITION": 15,
            "TANGENT": 17,
            "TEXCOORD_0": 18
          },
          "indices": 19,
          "material": 3,
          "mode": 4
        }
      ]
    },
    {
      "name": "defaultMaterial",
      "primitives": [
        {
          "attributes": {
            "NORMAL": 21,
            "POSITION": 20,
            "TANGENT": 22,
            "TEXCOORD_0": 23
          },
          "indices": 24,
          "material": 4,
          "mode": 4
        }
      ]
    },
    {
      "name": "defaultMaterial",
      "primitives": [
        {
          "attributes": {
            "NORMAL": 26,
            "POSITION": 25,
            "TANGENT": 27,
            "TEXCOORD_0": 28
          },
          "indices": 29,
          "material": 5,
          "mode": 4
        }
      ]
    },
    {
      "name": "defaultMaterial",
      "primitives": [
        {
          "attributes": {
            "NORMAL": 31,
            "POSITION": 30,
            "TANGENT": 32,
            "TEXCOORD_0": 33
          },
          "indices": 34,
          "material": 6,
          "mode": 4
        }
      ]
    }
  ],
  "nodes": [
    {
      "children": [
        1
      ],
      "matrix": [
        1.0,
        0.0,
        0.0,
        0.0,
        0.0,
        2.220446049250313e-16,
        -1.0,
        0.0,
        0.0,
        1.0,
        2.220446049250313e-16,
        0.0,
        0.0,
        0.0,
        0.0,
        1.0
      ],
      "name": "Sketchfab_model"
    },
    {
      "children": [
        2
      ],
      "matrix": [
        1.0,
        0.0,
        0.0,
        0.0,
        0.0,
        -4.371139006309477e-08,
        0.999999999999999,
        0.0,
        0.0,
        -0.999999999999999,
        -4.371139006309477e-08,
        0.0,
        0.0,
        0.0,
        0.0,
        1.0
      ],
      "name": "Collada visual scene group"
    },
    {
      "children": [
        3,
        4,
        5,
        6,
        7,
        8,
        9
      ],
      "name": "lunchbox"
    },
    {
      "mesh": 0,
      "name": "defaultMaterial"
    },
    {
      "mesh": 1,
      "name": "defaultMaterial"
    },
    {
      "mesh": 2,
      "name": "defaultMaterial"
    },
    {
      "mesh": 3,
      "name": "defaultMaterial"
    },
    {
      "mesh": 4,
      "name": "defaultMaterial"
    },
    {
      "mesh": 5,
      "name": "defaultMaterial"
    },
    {
      "mesh": 6,
      "name": "defaultMaterial"
    }
  ],
  "samplers": [
    {
      "magFilter": 9729,
      "minFilter": 9987,
      "wrapS": 10497,
      "wrapT": 10497
    }
  ],
  "scene": 0,
  "scenes": [
    {
      "name": "Sketchfab_Scene",
      "nodes": [
        0
      ]
    }
  ],
  "textures": [
    {
      "sampler": 0,
      "source": 0
    },
    {
      "sampler": 0,
      "source": 1
    },
    {
      "sampler": 0,
      "source": 2
    },
    {
      "sampler": 0,
      "source": 3
    },
    {
      "sampler": 0,
      "source": 4
    },
    {
      "sampler": 0,
      "source": 5
    },
    {
      "sampler": 0,
      "source": 6
    },
    {
      "sampler": 0,
      "source": 7
    },
    {
      "sampler": 0,
      "source": 8
    },
    {
      "sampler": 0,
      "source": 9
    },
    {
      "sampler": 0,
      "source": 10
    },
    {
      "sampler": 0,
      "source": 11
    },
    {
      "sampler": 0,
      "source": 12
    },
    {
      "sampler": 0,
      "source": 13
    },
    {
      "sampler": 0,
      "source": 14
    },
    {
      "sampler": 0,
      "source": 15
    },
    {
      "sampler": 0,
      "source": 16
    },
    {
      "sampler": 0,
      "source": 17
    },
    {
      "sampler": 0,
      "source": 18
    },
    {
      "sampler": 0,
      "source": 19
    },
    {
      "sampler": 0,
      "source": 20
    },
    {
      "sampler": 0,
      "source": 21
    },
    {
      "sampler": 0,
      "source": 22
    },
    {
      "sampler": 0,
      "source": 23
    },
    {
      "sampler": 0,
      "source": 24
    },
    {
      "sampler": 0,
      "source": 25
    },
    {
      "sampler": 0,
      "source": 26
    },
    {
      "sampler": 0,
      "source": 27
    }
  ]
}
